<?xml version="1.0" encoding="UTF-8" standalone="no"?><!DOCTYPE svg PUBLIC "-//W3C//DTD SVG 1.1//EN" "http://www.w3.org/Graphics/SVG/1.1/DTD/svg11.dtd"><svg width="100%" height="100%" viewBox="0 0 390 55" version="1.1" xmlns="http://www.w3.org/2000/svg" xmlns:xlink="http://www.w3.org/1999/xlink" xml:space="preserve" xmlns:serif="http://www.serif.com/" style="fill-rule:evenodd;clip-rule:evenodd;stroke-linejoin:round;stroke-miterlimit:2;"><g transform="matrix(62.8364,0,0,62.8364,-3.33033,45.5745)"><path d="M0.348,0.016c-0.059,0 -0.109,-0.01 -0.152,-0.031c-0.043,-0.021 -0.077,-0.05 -0.101,-0.087c-0.024,-0.036 -0.038,-0.08 -0.042,-0.129l0.132,-0.008c0.004,0.031 0.013,0.057 0.027,0.078c0.013,0.022 0.032,0.038 0.054,0.049c0.024,0.011 0.051,0.016 0.084,0.016c0.028,0 0.052,-0.003 0.072,-0.01c0.019,-0.007 0.034,-0.018 0.045,-0.031c0.01,-0.014 0.015,-0.031 0.015,-0.051c0,-0.018 -0.004,-0.034 -0.013,-0.049c-0.009,-0.014 -0.025,-0.026 -0.05,-0.038c-0.025,-0.012 -0.061,-0.023 -0.11,-0.035c-0.058,-0.013 -0.106,-0.029 -0.141,-0.046c-0.035,-0.017 -0.061,-0.038 -0.077,-0.064c-0.016,-0.025 -0.024,-0.057 -0.024,-0.096c0,-0.042 0.01,-0.078 0.031,-0.11c0.02,-0.031 0.05,-0.056 0.088,-0.074c0.038,-0.017 0.084,-0.026 0.137,-0.026c0.057,-0 0.105,0.01 0.144,0.03c0.04,0.021 0.071,0.049 0.093,0.084c0.023,0.035 0.037,0.076 0.042,0.122l-0.131,0.006c-0.003,-0.026 -0.011,-0.048 -0.023,-0.068c-0.012,-0.019 -0.029,-0.035 -0.05,-0.046c-0.021,-0.011 -0.047,-0.016 -0.077,-0.016c-0.037,-0 -0.067,0.009 -0.089,0.026c-0.022,0.017 -0.032,0.039 -0.032,0.067c-0,0.019 0.004,0.035 0.013,0.048c0.01,0.012 0.026,0.023 0.049,0.032c0.023,0.01 0.056,0.019 0.098,0.029c0.064,0.014 0.114,0.031 0.151,0.051c0.038,0.021 0.064,0.045 0.08,0.072c0.016,0.027 0.024,0.059 0.024,0.094c-0,0.043 -0.011,0.081 -0.033,0.112c-0.022,0.032 -0.053,0.056 -0.093,0.073c-0.04,0.017 -0.087,0.026 -0.141,0.026Z" style="fill:#fff;fill-rule:nonzero;"/></g><g transform="matrix(62.8364,0,0,62.8364,38.9586,45.5745)"><path d="M0.225,0.012c-0.056,0 -0.101,-0.013 -0.135,-0.038c-0.034,-0.026 -0.051,-0.062 -0.051,-0.108c0,-0.046 0.015,-0.082 0.043,-0.108c0.029,-0.026 0.072,-0.045 0.131,-0.056l0.177,-0.035c0,-0.038 -0.009,-0.066 -0.026,-0.085c-0.017,-0.019 -0.043,-0.029 -0.077,-0.029c-0.031,0 -0.055,0.007 -0.073,0.022c-0.018,0.014 -0.029,0.034 -0.036,0.061l-0.13,-0.006c0.01,-0.057 0.036,-0.1 0.078,-0.13c0.041,-0.031 0.095,-0.046 0.161,-0.046c0.076,0 0.134,0.019 0.173,0.057c0.039,0.038 0.058,0.093 0.058,0.165l0,0.194c0,0.014 0.003,0.024 0.007,0.029c0.005,0.005 0.013,0.008 0.023,0.008l0.017,-0l-0,0.093c-0.004,0.001 -0.011,0.002 -0.02,0.003c-0.009,0.001 -0.018,0.001 -0.027,0.001c-0.022,0 -0.041,-0.003 -0.059,-0.01c-0.017,-0.008 -0.03,-0.02 -0.04,-0.037c-0.01,-0.018 -0.014,-0.042 -0.014,-0.073l0.011,0.008c-0.006,0.023 -0.017,0.044 -0.035,0.063c-0.017,0.018 -0.039,0.032 -0.066,0.042c-0.027,0.01 -0.057,0.015 -0.09,0.015Zm0.026,-0.093c0.028,-0 0.053,-0.006 0.074,-0.017c0.02,-0.011 0.037,-0.027 0.048,-0.047c0.011,-0.02 0.017,-0.044 0.017,-0.071l0,-0.03l-0.138,0.028c-0.028,0.006 -0.049,0.015 -0.062,0.027c-0.012,0.011 -0.018,0.027 -0.018,0.045c-0,0.021 0.006,0.037 0.02,0.048c0.014,0.011 0.034,0.017 0.059,0.017Z" style="fill:#fff;fill-rule:nonzero;"/></g><g transform="matrix(62.8364,0,0,62.8364,75.278,45.5745)"><path d="M0.07,-0l0,-0.534l0.116,0l0.004,0.131l-0.012,-0.006c0.006,-0.029 0.017,-0.053 0.032,-0.073c0.015,-0.021 0.033,-0.036 0.055,-0.047c0.021,-0.012 0.045,-0.017 0.071,-0.017c0.045,0 0.082,0.013 0.11,0.039c0.028,0.025 0.046,0.06 0.053,0.105l-0.017,0c0.006,-0.031 0.016,-0.057 0.031,-0.078c0.014,-0.022 0.033,-0.038 0.055,-0.049c0.022,-0.011 0.048,-0.017 0.076,-0.017c0.037,0 0.069,0.008 0.095,0.023c0.027,0.016 0.047,0.039 0.061,0.069c0.015,0.03 0.022,0.067 0.022,0.111l-0,0.343l-0.128,-0l-0,-0.31c-0,-0.044 -0.008,-0.077 -0.022,-0.099c-0.015,-0.022 -0.038,-0.033 -0.069,-0.033c-0.021,0 -0.038,0.005 -0.053,0.016c-0.014,0.011 -0.026,0.026 -0.033,0.046c-0.008,0.02 -0.012,0.045 -0.012,0.074l-0,0.306l-0.119,0l0,-0.306c0,-0.044 -0.006,-0.077 -0.02,-0.101c-0.013,-0.023 -0.036,-0.035 -0.069,-0.035c-0.02,0 -0.038,0.005 -0.052,0.016c-0.015,0.011 -0.026,0.026 -0.034,0.047c-0.009,0.02 -0.013,0.044 -0.013,0.073l0,0.306l-0.128,0Z" style="fill:#fff;fill-rule:nonzero;"/></g><g transform="matrix(62.8364,0,0,62.8364,130.511,45.5745)"><path d="M0.301,0.012c-0.054,0 -0.1,-0.011 -0.139,-0.034c-0.039,-0.023 -0.069,-0.056 -0.091,-0.098c-0.021,-0.042 -0.032,-0.091 -0.032,-0.147c0,-0.056 0.011,-0.105 0.032,-0.147c0.022,-0.041 0.052,-0.074 0.091,-0.097c0.038,-0.023 0.084,-0.035 0.136,-0.035c0.051,0 0.095,0.011 0.134,0.034c0.038,0.023 0.067,0.056 0.088,0.098c0.021,0.043 0.031,0.094 0.031,0.154l0,0.029l-0.379,-0c0.003,0.047 0.015,0.082 0.038,0.105c0.023,0.024 0.054,0.036 0.092,0.036c0.029,-0 0.052,-0.007 0.071,-0.02c0.019,-0.012 0.032,-0.03 0.04,-0.054l0.131,0.008c-0.014,0.052 -0.043,0.093 -0.086,0.123c-0.043,0.03 -0.096,0.045 -0.157,0.045Zm-0.129,-0.329l0.247,-0c-0.003,-0.044 -0.015,-0.076 -0.037,-0.097c-0.022,-0.021 -0.05,-0.031 -0.084,-0.031c-0.034,-0 -0.062,0.011 -0.085,0.033c-0.022,0.022 -0.036,0.053 -0.041,0.095Z" style="fill:#fff;fill-rule:nonzero;"/></g><g transform="matrix(62.8364,0,0,62.8364,167.019,45.5745)"><path d="M0.301,0.012c-0.054,0 -0.1,-0.011 -0.139,-0.034c-0.039,-0.023 -0.069,-0.056 -0.091,-0.098c-0.021,-0.042 -0.032,-0.091 -0.032,-0.147c0,-0.056 0.011,-0.105 0.032,-0.147c0.022,-0.041 0.052,-0.074 0.091,-0.097c0.038,-0.023 0.084,-0.035 0.136,-0.035c0.051,0 0.095,0.011 0.134,0.034c0.038,0.023 0.067,0.056 0.088,0.098c0.021,0.043 0.031,0.094 0.031,0.154l0,0.029l-0.379,-0c0.003,0.047 0.015,0.082 0.038,0.105c0.023,0.024 0.054,0.036 0.092,0.036c0.029,-0 0.052,-0.007 0.071,-0.02c0.019,-0.012 0.032,-0.03 0.04,-0.054l0.131,0.008c-0.014,0.052 -0.043,0.093 -0.086,0.123c-0.043,0.03 -0.096,0.045 -0.157,0.045Zm-0.129,-0.329l0.247,-0c-0.003,-0.044 -0.015,-0.076 -0.037,-0.097c-0.022,-0.021 -0.05,-0.031 -0.084,-0.031c-0.034,-0 -0.062,0.011 -0.085,0.033c-0.022,0.022 -0.036,0.053 -0.041,0.095Z" style="fill:#fff;fill-rule:nonzero;"/></g><g transform="matrix(62.8364,0,0,62.8364,203.527,45.5745)"><path d="M0.07,-0l0,-0.534l0.12,0l0.005,0.148l-0.011,-0.002c0.008,-0.051 0.024,-0.088 0.046,-0.111c0.022,-0.024 0.052,-0.035 0.091,-0.035l0.049,0l0,0.11l-0.05,-0c-0.027,-0 -0.05,0.004 -0.068,0.012c-0.018,0.008 -0.031,0.02 -0.04,0.037c-0.009,0.017 -0.014,0.04 -0.014,0.067l0,0.308l-0.128,0Z" style="fill:#fff;fill-rule:nonzero;"/></g><g transform="matrix(62.8364,0,0,62.8364,229.227,45.5745)"></g><g transform="matrix(62.8364,0,0,62.8364,244.057,45.5745)"><path d="M0.348,0.016c-0.059,0 -0.109,-0.01 -0.152,-0.031c-0.043,-0.021 -0.077,-0.05 -0.101,-0.087c-0.024,-0.036 -0.038,-0.08 -0.042,-0.129l0.132,-0.008c0.004,0.031 0.013,0.057 0.027,0.078c0.013,0.022 0.032,0.038 0.054,0.049c0.024,0.011 0.051,0.016 0.084,0.016c0.028,0 0.052,-0.003 0.072,-0.01c0.019,-0.007 0.034,-0.018 0.045,-0.031c0.01,-0.014 0.015,-0.031 0.015,-0.051c0,-0.018 -0.004,-0.034 -0.013,-0.049c-0.009,-0.014 -0.025,-0.026 -0.05,-0.038c-0.025,-0.012 -0.061,-0.023 -0.11,-0.035c-0.058,-0.013 -0.106,-0.029 -0.141,-0.046c-0.035,-0.017 -0.061,-0.038 -0.077,-0.064c-0.016,-0.025 -0.024,-0.057 -0.024,-0.096c0,-0.042 0.01,-0.078 0.031,-0.11c0.02,-0.031 0.05,-0.056 0.088,-0.074c0.038,-0.017 0.084,-0.026 0.137,-0.026c0.057,-0 0.105,0.01 0.144,0.03c0.04,0.021 0.071,0.049 0.093,0.084c0.023,0.035 0.037,0.076 0.042,0.122l-0.131,0.006c-0.003,-0.026 -0.011,-0.048 -0.023,-0.068c-0.012,-0.019 -0.029,-0.035 -0.05,-0.046c-0.021,-0.011 -0.047,-0.016 -0.077,-0.016c-0.037,-0 -0.067,0.009 -0.089,0.026c-0.022,0.017 -0.032,0.039 -0.032,0.067c-0,0.019 0.004,0.035 0.013,0.048c0.01,0.012 0.026,0.023 0.049,0.032c0.023,0.01 0.056,0.019 0.098,0.029c0.064,0.014 0.114,0.031 0.151,0.051c0.038,0.021 0.064,0.045 0.08,0.072c0.016,0.027 0.024,0.059 0.024,0.094c-0,0.043 -0.011,0.081 -0.033,0.112c-0.022,0.032 -0.053,0.056 -0.093,0.073c-0.04,0.017 -0.087,0.026 -0.141,0.026Z" style="fill:#fff;fill-rule:nonzero;"/></g><g transform="matrix(62.8364,0,0,62.8364,284.837,45.5745)"><path d="M0.108,0.15l-0,-0.099l0.068,-0c0.017,-0 0.03,-0.003 0.039,-0.008c0.008,-0.005 0.015,-0.014 0.019,-0.027l0.015,-0.037l-0.037,-0l-0.191,-0.513l0.133,0l0.134,0.393l0.128,-0.393l0.133,0l-0.209,0.59c-0.012,0.033 -0.029,0.057 -0.05,0.072c-0.022,0.015 -0.052,0.022 -0.091,0.022l-0.091,0Z" style="fill:#fff;fill-rule:nonzero;"/></g><g transform="matrix(62.8364,0,0,62.8364,318.895,45.5745)"><path d="M0.301,0.012c-0.054,0 -0.1,-0.011 -0.139,-0.034c-0.039,-0.023 -0.069,-0.056 -0.091,-0.098c-0.021,-0.042 -0.032,-0.091 -0.032,-0.147c0,-0.056 0.011,-0.105 0.032,-0.147c0.022,-0.041 0.052,-0.074 0.091,-0.097c0.038,-0.023 0.084,-0.035 0.136,-0.035c0.051,0 0.095,0.011 0.134,0.034c0.038,0.023 0.067,0.056 0.088,0.098c0.021,0.043 0.031,0.094 0.031,0.154l0,0.029l-0.379,-0c0.003,0.047 0.015,0.082 0.038,0.105c0.023,0.024 0.054,0.036 0.092,0.036c0.029,-0 0.052,-0.007 0.071,-0.02c0.019,-0.012 0.032,-0.03 0.04,-0.054l0.131,0.008c-0.014,0.052 -0.043,0.093 -0.086,0.123c-0.043,0.03 -0.096,0.045 -0.157,0.045Zm-0.129,-0.329l0.247,-0c-0.003,-0.044 -0.015,-0.076 -0.037,-0.097c-0.022,-0.021 -0.05,-0.031 -0.084,-0.031c-0.034,-0 -0.062,0.011 -0.085,0.033c-0.022,0.022 -0.036,0.053 -0.041,0.095Z" style="fill:#fff;fill-rule:nonzero;"/></g><g transform="matrix(62.8364,0,0,62.8364,355.403,45.5745)"><path d="M0.26,0.012c-0.045,0 -0.084,-0.011 -0.117,-0.034c-0.034,-0.023 -0.059,-0.055 -0.077,-0.097c-0.018,-0.042 -0.027,-0.091 -0.027,-0.148c0,-0.057 0.009,-0.106 0.027,-0.148c0.018,-0.042 0.044,-0.074 0.077,-0.097c0.033,-0.023 0.072,-0.034 0.117,-0.034c0.038,0 0.07,0.008 0.099,0.023c0.028,0.016 0.049,0.037 0.064,0.065l-0,-0.252l0.128,0l-0,0.71l-0.122,-0l-0.003,-0.079c-0.014,0.028 -0.036,0.051 -0.066,0.067c-0.029,0.016 -0.062,0.024 -0.1,0.024Zm0.039,-0.104c0.027,0 0.049,-0.006 0.067,-0.02c0.019,-0.014 0.033,-0.034 0.042,-0.06c0.01,-0.026 0.015,-0.058 0.015,-0.095c-0,-0.038 -0.005,-0.07 -0.015,-0.096c-0.009,-0.026 -0.023,-0.046 -0.042,-0.059c-0.018,-0.014 -0.04,-0.02 -0.067,-0.02c-0.039,-0 -0.07,0.015 -0.093,0.046c-0.023,0.032 -0.034,0.075 -0.034,0.129c-0,0.053 0.011,0.096 0.034,0.128c0.023,0.032 0.054,0.047 0.093,0.047Z" style="fill:#fff;fill-rule:nonzero;"/></g><g transform="matrix(62.8364,0,0,62.8364,394.424,45.5745)"></g></svg>